<svg width="60" height="60" viewBox="0 0 60 60" fill="none" xmlns="http://www.w3.org/2000/svg">
<g clip-path="url(#clip0_1852_10349)">
<path d="M6.83984 51.6703C6.83984 53.081 7.98547 54.2222 9.40176 54.2222H52.6522C54.0685 54.2222 55.2141 53.081 55.2141 51.6703V49.5322H6.83984V51.6703Z" fill="#FF6600"/>
<path d="M52.6524 55.0003H9.39562C7.55129 55.0003 6.04688 53.5017 6.04688 51.6646V22.6032C6.04688 20.7661 7.55129 19.2676 9.39562 19.2676H27.1906C27.6249 19.2676 27.9774 19.6187 27.9774 20.0513C27.9774 20.484 27.6249 20.8351 27.1906 20.8351H9.39562C8.41995 20.8351 7.62053 21.6251 7.62053 22.6032V51.6709C7.62053 52.6427 8.41366 53.439 9.39562 53.439H52.6461C53.6217 53.439 54.4212 52.649 54.4212 51.6709V22.6032C54.4212 21.6314 53.6217 20.8351 52.6461 20.8351H34.8574C34.4231 20.8351 34.0706 20.484 34.0706 20.0513C34.0706 19.6187 34.4231 19.2676 34.8574 19.2676H52.6461C54.4904 19.2676 55.9948 20.7661 55.9948 22.6032V51.6709C55.9948 53.508 54.4904 55.0065 52.6461 55.0065L52.6524 55.0003Z" fill="#231815"/>
<path d="M32.4767 25.3432H29.5685C27.8249 25.3432 26.4023 23.9262 26.4023 22.1894V12.4458C26.4023 10.709 27.8249 9.29199 29.5685 9.29199H32.4767C34.2203 9.29199 35.6429 10.709 35.6429 12.4458V22.1894C35.6429 23.9262 34.2203 25.3432 32.4767 25.3432ZM29.5685 10.8532C28.6873 10.8532 27.976 11.568 27.976 12.4395V22.1831C27.976 23.0609 28.6936 23.7694 29.5685 23.7694H32.4767C33.3579 23.7694 34.0692 23.0546 34.0692 22.1831V12.4395C34.0692 11.5617 33.3516 10.8532 32.4767 10.8532H29.5685Z" fill="#231815"/>
<path d="M31.0219 16.603C29.8637 16.603 28.9258 15.6625 28.9258 14.5088C28.9258 13.3551 29.87 12.4209 31.0219 12.4209C32.1738 12.4209 33.118 13.3614 33.118 14.5088C33.118 15.6562 32.1738 16.603 31.0219 16.603ZM31.0219 13.9884C30.7323 13.9884 30.4994 14.2204 30.4994 14.5088C30.4994 14.7972 30.7323 15.0355 31.0219 15.0355C31.3115 15.0355 31.5444 14.7972 31.5444 14.5088C31.5444 14.2204 31.3115 13.9884 31.0219 13.9884Z" fill="#231815"/>
<path d="M26.7997 49.5274C26.3654 49.5274 26.0129 49.1763 26.0129 48.7437C26.0129 45.7466 24.6721 43.0192 22.5131 41.6335C22.148 41.3952 22.041 40.9124 22.2802 40.5488C22.5194 40.1851 23.0041 40.0785 23.3692 40.3168C25.9688 41.9909 27.5866 45.2199 27.5866 48.7437C27.5866 49.1763 27.2341 49.5274 26.7997 49.5274Z" fill="#1CBAFF"/>
<path d="M12.2907 49.5271C11.8564 49.5271 11.5039 49.1759 11.5039 48.7433C11.5039 45.0628 13.3042 41.6645 16.0927 40.0844C16.4704 39.8713 16.9488 40.0029 17.1628 40.3791C17.3768 40.7553 17.2446 41.2318 16.8669 41.445C14.5631 42.7492 13.0713 45.6146 13.0713 48.737C13.0713 49.1697 12.7188 49.5208 12.2844 49.5208L12.2907 49.5271Z" fill="#1CBAFF"/>
<path d="M15.8456 37.7954C14.7188 37.7954 13.6487 37.2499 12.9123 36.3032C12.201 35.4003 11.8862 34.2529 12.0436 33.1682C12.4591 30.3655 15.1406 28.3026 17.6144 27.5001C20.9253 26.4216 23.9468 27.4562 25.9988 30.3529C26.4961 31.0552 27.4906 33.419 26.8864 34.8423C26.6409 35.4191 26.1625 35.789 25.533 35.8831C24.6392 36.021 23.8712 35.5006 23.2166 35.0554C22.6501 34.6667 22.1465 34.303 21.6303 34.4034C20.8687 34.5538 20.277 35.1369 19.5846 35.8141C18.6593 36.7232 17.6081 37.7515 15.9337 37.7954H15.8456ZM20.1448 28.6412C19.4965 28.6412 18.8103 28.7541 18.1053 28.9861C16.1603 29.6193 13.9194 31.2684 13.5984 33.3939C13.504 34.046 13.7054 34.7733 14.146 35.3376C14.5866 35.9019 15.2035 36.2279 15.8393 36.2279H15.8896C16.9471 36.2028 17.6521 35.5069 18.4767 34.698C19.2384 33.9519 20.0944 33.1055 21.3156 32.8609C21.473 32.8296 21.6366 32.8108 21.8003 32.8108C22.7256 32.8108 23.4621 33.3124 24.1041 33.7575C24.5196 34.0397 24.9413 34.3344 25.2309 34.3344C25.3882 34.3156 25.4008 34.2968 25.4323 34.2215C25.6904 33.6196 25.1553 31.8828 24.7084 31.2495C23.481 29.519 21.9451 28.6412 20.1385 28.6412H20.1448Z" fill="#231815"/>
<path d="M19.3719 42.3407C16.2623 42.3407 15.2426 39.7637 14.4117 37.6507L14.2103 37.1428C14.0466 36.7415 14.2417 36.2838 14.6446 36.1208C15.0475 35.9578 15.507 36.1522 15.6706 36.5534L15.8783 37.0739C16.8666 39.5693 17.5968 41.0804 20.0895 40.7167C22.7332 40.328 23.9355 37.6883 23.9544 35.243C23.9544 34.8104 24.3006 34.4467 24.7475 34.4655C25.1818 34.4655 25.5343 34.8229 25.528 35.2556C25.5028 38.3717 23.8851 41.745 20.3161 42.2717C19.9825 42.3218 19.6677 42.3469 19.3719 42.3469V42.3407Z" fill="#231815"/>
<path d="M55.2119 50.3165H6.83761C6.40328 50.3165 6.05078 49.9654 6.05078 49.5328C6.05078 49.1001 6.40328 48.749 6.83761 48.749H55.2119C55.6462 48.749 55.9987 49.1001 55.9987 49.5328C55.9987 49.9654 55.6462 50.3165 55.2119 50.3165Z" fill="#231815"/>
<path d="M49.2157 35.7452H34.3415C33.9072 35.7452 33.5547 35.3941 33.5547 34.9615C33.5547 34.5289 33.9072 34.1777 34.3415 34.1777H49.2157C49.6501 34.1777 50.0026 34.5289 50.0026 34.9615C50.0026 35.3941 49.6501 35.7452 49.2157 35.7452Z" fill="#231815"/>
<path d="M49.2157 41.8702H34.3415C33.9072 41.8702 33.5547 41.5191 33.5547 41.0865C33.5547 40.6539 33.9072 40.3027 34.3415 40.3027H49.2157C49.6501 40.3027 50.0026 40.6539 50.0026 41.0865C50.0026 41.5191 49.6501 41.8702 49.2157 41.8702Z" fill="#231815"/>
<path d="M24.45 17.38C21.6615 17.38 18.0358 16.2138 16.9531 15.7184C15.2221 14.9284 13.8184 13.3484 12.4587 11.8185C10.2682 9.36066 10.3942 7.40995 7.12726 8.04322C6.70552 8.12473 6.29007 7.84885 6.20195 7.42876C6.12012 7.0024 6.39708 6.58859 6.82511 6.50708C10.967 5.69825 11.3572 8.22579 13.6295 10.7777C14.9388 12.2511 16.1789 13.6431 17.6078 14.2951C19.7542 15.2733 25.218 16.4458 26.2503 15.4363C26.5587 15.1353 27.056 15.1353 27.3644 15.4488C27.6666 15.7561 27.6666 16.2514 27.3518 16.5586C26.735 17.1605 25.6775 17.3863 24.45 17.3863V17.38Z" fill="#231815"/>
<path d="M34.9329 15.5932C34.5615 15.5932 34.2342 15.3299 34.1586 14.9537C34.0768 14.5273 34.3601 14.1198 34.7818 14.0383C37.457 13.5304 38.5397 12.5648 40.3211 10.9723C40.6421 10.6838 40.9883 10.3766 41.3597 10.0568C42.5871 8.99721 45.0232 7.12875 47.4907 6.58326C48.4349 6.37635 49.3791 6.37008 50.2918 6.37008C51.236 6.37008 52.1298 6.37008 52.9796 6.15063C53.4013 6.03777 53.8294 6.29484 53.9364 6.71493C54.0434 7.13502 53.7916 7.56138 53.3699 7.66797C52.3312 7.93758 51.2926 7.93758 50.2918 7.93758C49.4231 7.93758 48.6048 7.93758 47.8243 8.11314C46.2695 8.45799 44.2867 9.59913 42.3857 11.2419C42.0206 11.5554 41.687 11.8563 41.366 12.1385C39.5154 13.7938 38.1746 14.9913 35.0651 15.5807C35.0147 15.5932 34.9643 15.5932 34.9203 15.5932H34.9329Z" fill="#231815"/>
</g>
<defs>
<clipPath id="clip0_1852_10349">
<rect width="52" height="49" fill="white" transform="translate(4 6)"/>
</clipPath>
</defs>
</svg>
