<svg width="60" height="60" viewBox="0 0 60 60" fill="none" xmlns="http://www.w3.org/2000/svg">
<g clip-path="url(#clip0_1852_10279)">
<path d="M53.8085 54.3084H30.5325C30.1077 54.3084 29.763 53.9634 29.763 53.5384C29.763 53.1134 30.1077 52.7685 30.5325 52.7685H53.8085C54.1717 52.7685 54.4671 52.4729 54.4671 52.1095V11.1989C54.4671 10.8355 54.1717 10.5398 53.8085 10.5398H6.1977C5.8345 10.5398 5.53901 10.8355 5.53901 11.1989V52.1095C5.53901 52.4729 5.8345 52.7685 6.1977 52.7685H11.9721C12.3968 52.7685 12.7416 53.1134 12.7416 53.5384C12.7416 53.9634 12.3968 54.3084 11.9721 54.3084H6.1977C4.98496 54.3084 4 53.3229 4 52.1095V11.1989C4 9.9855 4.98496 9 6.1977 9H53.8085C55.0212 9 56.0062 9.9855 56.0062 11.1989V52.1095C56.0062 53.3229 55.0212 54.3084 53.8085 54.3084Z" fill="#231815"/>
<path d="M30.3504 41.3184V54.6411C30.3504 55.5219 29.6363 56.2302 28.7622 56.2302H12.3317C11.4514 56.2302 11.9747 55.5219 11.9747 54.6411V41.3184H30.3443H30.3504Z" fill="#4FCAFF"/>
<path d="M32.8111 34.0133H10.2369C9.42432 34.0133 8.76562 33.3542 8.76562 32.5412V16.1449C8.76562 15.3319 9.42432 14.6729 10.2369 14.6729H32.8172C33.6298 14.6729 34.2885 15.3319 34.2885 16.1449V32.5412C34.2885 33.3542 33.6298 34.0133 32.8172 34.0133H32.8111ZM10.3046 32.4734H32.7434V16.2127H10.3046V32.4673V32.4734Z" fill="#231815"/>
<path d="M28.7622 56.9998H12.3318C11.8762 56.9998 11.5315 56.8582 11.3037 56.581C10.9528 56.156 11.0513 55.6448 11.1313 55.2321C11.1683 55.035 11.2052 54.8317 11.2052 54.6346V41.3119C11.2052 40.8869 11.5499 40.542 11.9747 40.542H30.3443C30.7691 40.542 31.1138 40.8869 31.1138 41.3119V54.6346C31.1138 55.9343 30.055 56.9937 28.756 56.9937L28.7622 56.9998ZM12.658 55.46H28.7622C29.2116 55.46 29.581 55.0966 29.581 54.647V42.0942H12.7442V54.647C12.7442 54.9549 12.695 55.2321 12.6519 55.46H12.658Z" fill="#231815"/>
<path d="M30.8654 44.7373C30.4406 44.7373 30.0959 44.3924 30.0959 43.9674C30.0959 43.5424 30.4406 43.1975 30.8654 43.1975C31.3148 43.1975 31.6841 42.8279 31.6841 42.3783V40.2594C31.6841 39.8098 31.3148 39.4402 30.8654 39.4402H11.4554C11.006 39.4402 10.6367 39.8098 10.6367 40.2594V42.3783C10.6367 42.8279 11.006 43.1975 11.4554 43.1975C11.8802 43.1975 12.2249 43.5424 12.2249 43.9674C12.2249 44.3924 11.8802 44.7373 11.4554 44.7373C10.1565 44.7373 9.09766 43.6779 9.09766 42.3783V40.2594C9.09766 38.9598 10.1565 37.9004 11.4554 37.9004H30.8654C32.1643 37.9004 33.2231 38.9598 33.2231 40.2594V42.3783C33.2231 43.6779 32.1643 44.7373 30.8654 44.7373Z" fill="#231815"/>
<path d="M42.8392 40.3455C42.8392 41.6267 41.7988 42.6738 40.5184 42.6738C39.2379 42.6738 38.1914 41.6328 38.1914 40.3455C38.1914 39.0582 39.2318 38.0234 40.5184 38.0234C41.805 38.0234 42.8392 39.0644 42.8392 40.3455Z" fill="#4FCAFF"/>
<path d="M50.1791 40.3455C50.1791 41.6267 49.1387 42.6738 47.8521 42.6738C46.5655 42.6738 45.5312 41.6328 45.5312 40.3455C45.5312 39.0582 46.5716 38.0234 47.8521 38.0234C49.1325 38.0234 50.1791 39.0644 50.1791 40.3455Z" fill="#F8D340"/>
<path d="M50.1791 47.2687C50.1791 48.5498 49.1387 49.5908 47.8521 49.5908C46.5655 49.5908 45.5312 48.5498 45.5312 47.2687C45.5312 45.9875 46.5716 44.9404 47.8521 44.9404C49.1325 44.9404 50.1791 45.9814 50.1791 47.2687Z" fill="#EB2149"/>
<path d="M40.5184 43.4372C38.8131 43.4372 37.4219 42.0514 37.4219 40.3391C37.4219 38.6268 38.807 37.2471 40.5184 37.2471C42.2297 37.2471 43.6087 38.6329 43.6087 40.3391C43.6087 42.0452 42.2236 43.4372 40.5184 43.4372ZM40.5184 38.7869C39.6627 38.7869 38.9609 39.4829 38.9609 40.3391C38.9609 41.1952 39.6565 41.8974 40.5184 41.8974C41.3802 41.8974 42.0697 41.2014 42.0697 40.3391C42.0697 39.4768 41.374 38.7869 40.5184 38.7869Z" fill="#231815"/>
<path d="M47.856 43.4372C46.1507 43.4372 44.7656 42.0514 44.7656 40.3391C44.7656 38.6268 46.1507 37.2471 47.856 37.2471C49.5612 37.2471 50.9524 38.6329 50.9524 40.3391C50.9524 42.0452 49.5673 43.4372 47.856 43.4372ZM47.856 38.7869C47.0003 38.7869 46.3046 39.4829 46.3046 40.3391C46.3046 41.1952 47.0003 41.8974 47.856 41.8974C48.7116 41.8974 49.4134 41.2014 49.4134 40.3391C49.4134 39.4768 48.7178 38.7869 47.856 38.7869Z" fill="#231815"/>
<path d="M40.5184 50.3601C38.8131 50.3601 37.4219 48.9742 37.4219 47.2681C37.4219 45.5619 38.807 44.1699 40.5184 44.1699C42.2297 44.1699 43.6087 45.5558 43.6087 47.2681C43.6087 48.9804 42.2236 50.3601 40.5184 50.3601ZM40.5184 45.7098C39.6627 45.7098 38.9609 46.4058 38.9609 47.2681C38.9609 48.1304 39.6565 48.8203 40.5184 48.8203C41.3802 48.8203 42.0697 48.1242 42.0697 47.2681C42.0697 46.4119 41.374 45.7098 40.5184 45.7098Z" fill="#231815"/>
<path d="M47.856 50.3601C46.1507 50.3601 44.7656 48.9742 44.7656 47.2681C44.7656 45.5619 46.1507 44.1699 47.856 44.1699C49.5612 44.1699 50.9524 45.5558 50.9524 47.2681C50.9524 48.9804 49.5673 50.3601 47.856 50.3601ZM47.856 45.7098C47.0003 45.7098 46.3046 46.4058 46.3046 47.2681C46.3046 48.1304 47.0003 48.8203 47.856 48.8203C48.7116 48.8203 49.4134 48.1242 49.4134 47.2681C49.4134 46.4119 48.7178 45.7098 47.856 45.7098Z" fill="#231815"/>
<path d="M50.1715 20.7645H38.5735C37.3054 20.7645 36.2773 19.7297 36.2773 18.4609V16.9765C36.2773 15.7076 37.3054 14.6729 38.5735 14.6729H50.1715C51.4396 14.6729 52.4677 15.7076 52.4677 16.9765V18.4609C52.4677 19.7297 51.4396 20.7645 50.1715 20.7645ZM38.5735 16.2189C38.1549 16.2189 37.8164 16.5576 37.8164 16.9826V18.467C37.8164 18.8859 38.1549 19.2308 38.5735 19.2308H50.1715C50.5901 19.2308 50.9287 18.892 50.9287 18.467V16.9826C50.9287 16.5638 50.5901 16.2189 50.1715 16.2189H38.5735Z" fill="#231815"/>
<path d="M18.4551 19.8037C18.7937 19.8037 19.1138 19.8715 19.4155 20.0008C19.7171 20.1302 19.9757 20.3088 20.1973 20.5305C20.4189 20.7523 20.5974 21.0171 20.7267 21.3128C20.856 21.6146 20.9237 21.9349 20.9237 22.2736V26.4066C20.9237 26.7453 20.856 27.0656 20.7267 27.3674C20.5974 27.6692 20.4189 27.9279 20.1973 28.1497C19.9757 28.3714 19.7109 28.55 19.4155 28.6794C19.1138 28.8087 18.7937 28.8765 18.4551 28.8765H17.1069C16.7684 28.8765 16.4482 28.8087 16.1466 28.6794C15.845 28.55 15.5864 28.3714 15.3648 28.1497C15.1432 27.9279 14.9646 27.6631 14.8354 27.3674C14.7061 27.0656 14.6445 26.7453 14.6445 26.4066V22.2736C14.6445 21.9349 14.7061 21.6146 14.8354 21.3128C14.9646 21.0109 15.137 20.7523 15.3648 20.5305C15.5864 20.3088 15.8511 20.1302 16.1466 20.0008C16.4482 19.8715 16.7684 19.8037 17.1069 19.8037H18.4551ZM19.3908 22.5508C19.3908 22.3968 19.3601 22.249 19.2985 22.1073C19.2369 21.9718 19.1569 21.8486 19.0584 21.7439C18.9599 21.6392 18.8429 21.5591 18.7075 21.4975C18.5721 21.4421 18.4305 21.4113 18.2704 21.4113H17.2855C17.1316 21.4113 16.9838 21.4421 16.8484 21.4975C16.713 21.5591 16.596 21.6392 16.4975 21.7439C16.3928 21.8486 16.3128 21.9657 16.2574 22.1073C16.202 22.2428 16.1712 22.3906 16.1712 22.5508V26.1355C16.1712 26.2895 16.202 26.4374 16.2574 26.5729C16.3128 26.7084 16.3928 26.8316 16.4975 26.9363C16.596 27.041 16.7191 27.121 16.8484 27.1765C16.9838 27.2381 17.1316 27.2689 17.2855 27.2689H18.2704C18.4243 27.2689 18.5721 27.2381 18.7075 27.1765C18.8429 27.1149 18.9599 27.0348 19.0584 26.9363C19.1569 26.8316 19.2369 26.7145 19.2985 26.5729C19.3601 26.4374 19.3908 26.2895 19.3908 26.1355V22.5508Z" fill="black"/>
<path d="M25.9333 19.8037C26.2719 19.8037 26.592 19.8715 26.8937 20.0008C27.1953 20.1302 27.4539 20.3088 27.6755 20.5305C27.8971 20.7523 28.0756 21.0171 28.2049 21.3128C28.3342 21.6146 28.4019 21.9349 28.4019 22.2736V26.4066C28.4019 26.7453 28.3342 27.0656 28.2049 27.3674C28.0756 27.6692 27.8971 27.9279 27.6755 28.1497C27.4539 28.3714 27.1892 28.55 26.8937 28.6794C26.592 28.8087 26.2719 28.8765 25.9333 28.8765H24.5852C24.2466 28.8765 23.9265 28.8087 23.6248 28.6794C23.3232 28.55 23.0646 28.3714 22.843 28.1497C22.6214 27.9279 22.449 27.6631 22.3197 27.3674C22.1905 27.0656 22.1289 26.7453 22.1289 26.4066V22.2736C22.1289 21.9349 22.1905 21.6146 22.3197 21.3128C22.449 21.0109 22.6214 20.7523 22.843 20.5305C23.0646 20.3088 23.3293 20.1302 23.6248 20.0008C23.9265 19.8715 24.2466 19.8037 24.5852 19.8037H25.9333ZM26.8629 22.5508C26.8629 22.3968 26.8321 22.249 26.7767 22.1073C26.7151 21.9718 26.6351 21.8486 26.5366 21.7439C26.4381 21.6392 26.3212 21.5591 26.1857 21.4975C26.0503 21.4421 25.9087 21.4113 25.7548 21.4113H24.7698C24.6159 21.4113 24.4682 21.4421 24.3328 21.4975C24.1973 21.5591 24.0804 21.6392 23.9757 21.7439C23.8711 21.8486 23.791 21.9657 23.7356 22.1073C23.6802 22.2428 23.6494 22.3906 23.6494 22.5508V26.1355C23.6494 26.2895 23.6741 26.4374 23.7356 26.5729C23.791 26.7084 23.8711 26.8316 23.9757 26.9363C24.0804 27.041 24.1973 27.121 24.3328 27.1765C24.4682 27.2381 24.6098 27.2689 24.7698 27.2689H25.7548C25.9087 27.2689 26.0565 27.2381 26.1857 27.1765C26.3212 27.1149 26.4381 27.0348 26.5366 26.9363C26.6351 26.8316 26.7151 26.7145 26.7767 26.5729C26.8383 26.4374 26.8629 26.2895 26.8629 26.1355V22.5508Z" fill="black"/>
</g>
<defs>
<clipPath id="clip0_1852_10279">
<rect width="52" height="48" fill="white" transform="translate(4 9)"/>
</clipPath>
</defs>
</svg>
