<svg width="60" height="60" viewBox="0 0 60 60" fill="none" xmlns="http://www.w3.org/2000/svg">
<g clip-path="url(#clip0_1852_10321)">
<path d="M23.5416 22.9082H37.8141C38.9392 22.9082 39.8557 23.8162 39.8557 24.9309V25.9391C39.8557 27.0538 38.9392 27.9618 37.8141 27.9618H23.5416C22.4165 27.9618 21.5 27.0538 21.5 25.9391V24.9309C21.5 23.8162 22.4165 22.9082 23.5416 22.9082Z" fill="#F8D340"/>
<path d="M24.901 27.9619H39.1735C40.2986 27.9619 41.2151 28.8699 41.2151 29.9846V30.9928C41.2151 32.1075 40.2986 33.0155 39.1735 33.0155H24.901C23.7759 33.0155 22.8594 32.1075 22.8594 30.9928V29.9846C22.8594 28.8699 23.7759 27.9619 24.901 27.9619Z" fill="#F8D340"/>
<path d="M23.5416 33.0156H37.8141C38.9392 33.0156 39.8557 33.9236 39.8557 35.0383V36.0465C39.8557 37.1612 38.9392 38.0692 37.8141 38.0692H23.5416C22.4165 38.0692 21.5 37.1612 21.5 36.0465V35.0383C21.5 33.9236 22.4165 33.0156 23.5416 33.0156Z" fill="#F8D340"/>
<path d="M22.1823 38.0625H36.4547C37.5798 38.0625 38.4963 38.9705 38.4963 40.0852V41.0934C38.4963 42.2081 37.5798 43.1161 36.4547 43.1161H22.1823C21.0571 43.1161 20.1406 42.2081 20.1406 41.0934V40.0852C20.1406 38.9705 21.0571 38.0625 22.1823 38.0625Z" fill="#F8D340"/>
<path d="M23.5416 43.1162H37.8141C38.9392 43.1162 39.8557 44.0242 39.8557 45.1389V46.1471C39.8557 47.2618 38.9392 48.1698 37.8141 48.1698H23.5416C22.4165 48.1698 21.5 47.2618 21.5 46.1471V45.1389C21.5 44.0242 22.4165 43.1162 23.5416 43.1162Z" fill="#F8D340"/>
<path d="M22.1823 48.1641H36.4547C37.5798 48.1641 38.4963 49.0721 38.4963 50.1868V51.195C38.4963 52.3097 37.5798 53.2177 36.4547 53.2177H22.1823C21.0571 53.2177 20.1406 52.3097 20.1406 51.195V50.1868C20.1406 49.0721 21.0571 48.1641 22.1823 48.1641Z" fill="#F8D340"/>
<path d="M37.819 28.7442H23.5466C21.9853 28.7442 20.7148 27.4855 20.7148 25.9387V24.9305C20.7148 23.3837 21.9853 22.125 23.5466 22.125H37.819C39.3803 22.125 40.6508 23.3837 40.6508 24.9305V25.9387C40.6508 27.4855 39.3803 28.7442 37.819 28.7442ZM23.5466 23.6906C22.8576 23.6906 22.2951 24.2479 22.2951 24.9305V25.9387C22.2951 26.6213 22.8576 27.1786 23.5466 27.1786H37.819C38.508 27.1786 39.0706 26.6213 39.0706 25.9387V24.9305C39.0706 24.2479 38.508 23.6906 37.819 23.6906H23.5466Z" fill="#231815"/>
<path d="M39.1784 33.7979H24.906C23.3447 33.7979 22.0742 32.5392 22.0742 30.9924V29.9842C22.0742 28.4374 23.3447 27.1787 24.906 27.1787H39.1784C40.7397 27.1787 42.0101 28.4374 42.0101 29.9842V30.9924C42.0101 32.5392 40.7397 33.7979 39.1784 33.7979ZM24.906 28.7443C24.217 28.7443 23.6544 29.3016 23.6544 29.9842V30.9924C23.6544 31.675 24.217 32.2323 24.906 32.2323H39.1784C39.8674 32.2323 40.4299 31.675 40.4299 30.9924V29.9842C40.4299 29.3016 39.8674 28.7443 39.1784 28.7443H24.906Z" fill="#231815"/>
<path d="M20.8229 33.7979H6.55048C4.98924 33.7979 3.71875 32.5392 3.71875 30.9924V29.9842C3.71875 28.4374 4.98924 27.1787 6.55048 27.1787H20.8229C22.3842 27.1787 23.6547 28.4374 23.6547 29.9842V30.9924C23.6547 32.5392 22.3842 33.7979 20.8229 33.7979ZM6.55048 28.7443C5.86151 28.7443 5.29896 29.3016 5.29896 29.9842V30.9924C5.29896 31.675 5.86151 32.2323 6.55048 32.2323H20.8229C21.5119 32.2323 22.0745 31.675 22.0745 30.9924V29.9842C22.0745 29.3016 21.5119 28.7443 20.8229 28.7443H6.55048Z" fill="#231815"/>
<path d="M37.819 38.8457H23.5466C21.9853 38.8457 20.7148 37.587 20.7148 36.0403V35.032C20.7148 33.4853 21.9853 32.2266 23.5466 32.2266H37.819C39.3803 32.2266 40.6508 33.4853 40.6508 35.032V36.0403C40.6508 37.587 39.3803 38.8457 37.819 38.8457ZM23.5466 33.7921C22.8576 33.7921 22.2951 34.3495 22.2951 35.032V36.0403C22.2951 36.7228 22.8576 37.2802 23.5466 37.2802H37.819C38.508 37.2802 39.0706 36.7228 39.0706 36.0403V35.032C39.0706 34.3495 38.508 33.7921 37.819 33.7921H23.5466Z" fill="#231815"/>
<path d="M36.4518 43.8985H22.1794C20.6181 43.8985 19.3477 42.6398 19.3477 41.093V40.0848C19.3477 38.538 20.6181 37.2793 22.1794 37.2793H36.4518C38.0131 37.2793 39.2836 38.538 39.2836 40.0848V41.093C39.2836 42.6398 38.0131 43.8985 36.4518 43.8985ZM22.1794 38.8449C21.4904 38.8449 20.9279 39.4022 20.9279 40.0848V41.093C20.9279 41.7756 21.4904 42.3329 22.1794 42.3329H36.4518C37.1408 42.3329 37.7034 41.7756 37.7034 41.093V40.0848C37.7034 39.4022 37.1408 38.8449 36.4518 38.8449H22.1794Z" fill="#231815"/>
<path d="M37.819 48.9463H23.5466C21.9853 48.9463 20.7148 47.6876 20.7148 46.1408V45.1326C20.7148 43.5859 21.9853 42.3271 23.5466 42.3271H37.819C39.3803 42.3271 40.6508 43.5859 40.6508 45.1326V46.1408C40.6508 47.6876 39.3803 48.9463 37.819 48.9463ZM23.5466 43.8927C22.8576 43.8927 22.2951 44.45 22.2951 45.1326V46.1408C22.2951 46.8234 22.8576 47.3808 23.5466 47.3808H37.819C38.508 47.3808 39.0706 46.8234 39.0706 46.1408V45.1326C39.0706 44.45 38.508 43.8927 37.819 43.8927H23.5466Z" fill="#231815"/>
<path d="M36.4518 54H22.1794C20.6181 54 19.3477 52.7413 19.3477 51.1946V50.1863C19.3477 48.6396 20.6181 47.3809 22.1794 47.3809H36.4518C38.0131 47.3809 39.2836 48.6396 39.2836 50.1863V51.1946C39.2836 52.7413 38.0131 54 36.4518 54ZM22.1794 48.9464C21.4904 48.9464 20.9279 49.5038 20.9279 50.1863V51.1946C20.9279 51.8771 21.4904 52.4345 22.1794 52.4345H36.4518C37.1408 52.4345 37.7034 51.8771 37.7034 51.1946V50.1863C37.7034 49.5038 37.1408 48.9464 36.4518 48.9464H22.1794Z" fill="#231815"/>
<path d="M19.4636 38.8457H5.19111C3.62986 38.8457 2.35938 37.587 2.35938 36.0403V35.032C2.35938 33.4853 3.62986 32.2266 5.19111 32.2266H19.4636C21.0248 32.2266 22.2953 33.4853 22.2953 35.032V36.0403C22.2953 37.587 21.0248 38.8457 19.4636 38.8457ZM5.19111 33.7921C4.50214 33.7921 3.93958 34.3495 3.93958 35.032V36.0403C3.93958 36.7228 4.50214 37.2802 5.19111 37.2802H19.4636C20.1525 37.2802 20.7151 36.7228 20.7151 36.0403V35.032C20.7151 34.3495 20.1525 33.7921 19.4636 33.7921H5.19111Z" fill="#231815"/>
<path d="M18.1042 43.8995H3.83174C2.27049 43.8995 1 42.6407 1 41.094V40.0858C1 38.539 2.27049 37.2803 3.83174 37.2803H18.1042C19.6654 37.2803 20.9359 38.539 20.9359 40.0858V41.094C20.9359 42.6407 19.6654 43.8995 18.1042 43.8995ZM3.83174 38.8458C3.14276 38.8458 2.58021 39.4032 2.58021 40.0858V41.094C2.58021 41.7766 3.14276 42.3339 3.83174 42.3339H18.1042C18.7932 42.3339 19.3557 41.7766 19.3557 41.094V40.0858C19.3557 39.4032 18.7932 38.8458 18.1042 38.8458H3.83174Z" fill="#231815"/>
<path d="M19.4636 48.9463H5.19111C3.62986 48.9463 2.35938 47.6876 2.35938 46.1408V45.1326C2.35938 43.5859 3.62986 42.3271 5.19111 42.3271H19.4636C21.0248 42.3271 22.2953 43.5859 22.2953 45.1326V46.1408C22.2953 47.6876 21.0248 48.9463 19.4636 48.9463ZM5.19111 43.8927C4.50214 43.8927 3.93958 44.45 3.93958 45.1326V46.1408C3.93958 46.8234 4.50214 47.3808 5.19111 47.3808H19.4636C20.1525 47.3808 20.7151 46.8234 20.7151 46.1408V45.1326C20.7151 44.45 20.1525 43.8927 19.4636 43.8927H5.19111Z" fill="#231815"/>
<path d="M18.1042 54H3.83174C2.27049 54 1 52.7413 1 51.1946V50.1863C1 48.6396 2.27049 47.3809 3.83174 47.3809H18.1042C19.6654 47.3809 20.9359 48.6396 20.9359 50.1863V51.1946C20.9359 52.7413 19.6654 54 18.1042 54ZM3.83174 48.9464C3.14276 48.9464 2.58021 49.5038 2.58021 50.1863V51.1946C2.58021 51.8771 3.14276 52.4345 3.83174 52.4345H18.1042C18.7932 52.4345 19.3557 51.8771 19.3557 51.1946V50.1863C19.3557 49.5038 18.7932 48.9464 18.1042 48.9464H3.83174Z" fill="#231815"/>
<path d="M56.1667 38.8457H41.8942C40.333 38.8457 39.0625 37.587 39.0625 36.0403V35.032C39.0625 33.4853 40.333 32.2266 41.8942 32.2266H56.1667C57.7279 32.2266 58.9984 33.4853 58.9984 35.032V36.0403C58.9984 37.587 57.7279 38.8457 56.1667 38.8457ZM41.8942 33.7921C41.2053 33.7921 40.6427 34.3495 40.6427 35.032V36.0403C40.6427 36.7228 41.2053 37.2802 41.8942 37.2802H56.1667C56.8557 37.2802 57.4182 36.7228 57.4182 36.0403V35.032C57.4182 34.3495 56.8557 33.7921 56.1667 33.7921H41.8942Z" fill="#231815"/>
<path d="M54.8112 43.8985H40.5388C38.9775 43.8985 37.707 42.6398 37.707 41.093V40.0848C37.707 38.538 38.9775 37.2793 40.5388 37.2793H54.8112C56.3725 37.2793 57.643 38.538 57.643 40.0848V41.093C57.643 42.6398 56.3725 43.8985 54.8112 43.8985ZM40.5388 38.8449C39.8498 38.8449 39.2872 39.4022 39.2872 40.0848V41.093C39.2872 41.7756 39.8498 42.3329 40.5388 42.3329H54.8112C55.5002 42.3329 56.0627 41.7756 56.0627 41.093V40.0848C56.0627 39.4022 55.5002 38.8449 54.8112 38.8449H40.5388Z" fill="#231815"/>
<path d="M56.1667 48.9463H41.8942C40.333 48.9463 39.0625 47.6876 39.0625 46.1408V45.1326C39.0625 43.5859 40.333 42.3271 41.8942 42.3271H56.1667C57.7279 42.3271 58.9984 43.5859 58.9984 45.1326V46.1408C58.9984 47.6876 57.7279 48.9463 56.1667 48.9463ZM41.8942 43.8927C41.2053 43.8927 40.6427 44.45 40.6427 45.1326V46.1408C40.6427 46.8234 41.2053 47.3808 41.8942 47.3808H56.1667C56.8557 47.3808 57.4182 46.8234 57.4182 46.1408V45.1326C57.4182 44.45 56.8557 43.8927 56.1667 43.8927H41.8942Z" fill="#231815"/>
<path d="M54.8112 54H40.5388C38.9775 54 37.707 52.7413 37.707 51.1946V50.1863C37.707 48.6396 38.9775 47.3809 40.5388 47.3809H54.8112C56.3725 47.3809 57.643 48.6396 57.643 50.1863V51.1946C57.643 52.7413 56.3725 54 54.8112 54ZM40.5388 48.9464C39.8498 48.9464 39.2872 49.5038 39.2872 50.1863V51.1946C39.2872 51.8771 39.8498 52.4345 40.5388 52.4345H54.8112C55.5002 52.4345 56.0627 51.8771 56.0627 51.1946V50.1863C56.0627 49.5038 55.5002 48.9464 54.8112 48.9464H40.5388Z" fill="#231815"/>
<path d="M38.7857 14.8114C38.7857 19.2513 35.1575 22.8458 30.676 22.8458C26.1946 22.8458 22.5664 19.2513 22.5664 14.8114C22.5664 10.3715 26.2009 6.7832 30.676 6.7832C35.1512 6.7832 38.7857 10.3777 38.7857 14.8114Z" fill="#F8D340"/>
<path d="M30.6771 23.6282C25.7721 23.6282 21.7773 19.6767 21.7773 14.811C21.7773 9.94521 25.7721 6 30.6771 6C35.5821 6 39.5768 9.95147 39.5768 14.811C39.5768 19.6705 35.5884 23.6282 30.6771 23.6282ZM30.6771 7.56556C26.6444 7.56556 23.3576 10.8157 23.3576 14.811C23.3576 18.8063 26.6381 22.0626 30.6771 22.0626C34.7161 22.0626 37.9966 18.8125 37.9966 14.811C37.9966 10.8094 34.7161 7.56556 30.6771 7.56556Z" fill="#231815"/>
<path d="M26.9141 14.862V14.2396H27.8521L27.1972 11.6357H28.3211L28.8874 14.2396H29.8166L30.5068 11.6357H31.4891L32.1085 14.2396H32.958L33.489 11.6357H34.5951L33.9492 14.2396H34.8606V14.862H33.7987L33.0554 17.9568H32.082L31.3652 14.862H30.5157L29.7281 17.9568H28.7901L28.0114 14.862H26.9141ZM29.0113 14.862L29.2945 16.2472L29.6662 14.862H29.0113ZM32.2413 14.862L32.5775 16.2999L32.8342 14.862H32.2413ZM30.9758 13.0823L30.675 14.2396H31.2236L30.9758 13.0823Z" fill="black"/>
</g>
<defs>
<clipPath id="clip0_1852_10321">
<rect width="58" height="48" fill="white" transform="translate(1 6)"/>
</clipPath>
</defs>
</svg>
