<svg width="60" height="60" viewBox="0 0 60 60" fill="none" xmlns="http://www.w3.org/2000/svg">
<g clip-path="url(#clip0_1852_10257)">
<path d="M46.7168 9.47852H39.3018V13.3188C39.3018 13.423 39.2894 13.521 39.2645 13.6128H42.5801C43.2022 13.6128 43.706 14.1089 43.706 14.7214V51.673C43.706 52.2855 43.2022 52.7816 42.5801 52.7816H14.4257C13.8036 52.7816 13.2997 52.2855 13.2997 51.673V14.7214C13.2997 14.1089 13.8036 13.6128 14.4257 13.6128H17.7412C17.7164 13.5148 17.7039 13.4168 17.7039 13.3188V9.47852H10.2827C9.45539 9.47852 8.77734 10.14 8.77734 10.9607V55.4337C8.77734 56.2544 9.44917 56.9159 10.2827 56.9159H46.7168C47.5504 56.9159 48.2222 56.2544 48.2222 55.4337V10.9607C48.2222 10.14 47.5504 9.47852 46.7168 9.47852Z" fill="#4FCAFF"/>
<path d="M46.717 57.9999H10.283C9.0264 57.9999 8 56.9893 8 55.752V11.2791C8 10.0419 9.0264 9.03125 10.283 9.03125H17.6979V10.5625H10.283C9.88484 10.5625 9.55515 10.8871 9.55515 11.2791V55.752C9.55515 56.1501 9.87862 56.4686 10.283 56.4686H46.717C47.1214 56.4686 47.4448 56.1501 47.4448 55.752V11.2791C47.4448 10.881 47.1152 10.5625 46.717 10.5625H39.3021V9.03125H46.717C47.9736 9.03125 49 10.0419 49 11.2791V55.752C49 56.9893 47.9736 57.9999 46.717 57.9999Z" fill="#231815"/>
<path d="M42.5814 53.866H14.4269C13.3757 53.866 12.5234 53.0269 12.5234 51.9918V15.0402C12.5234 14.0051 13.3757 13.166 14.4269 13.166H17.699V14.6972H14.4269C14.2341 14.6972 14.0786 14.8504 14.0786 15.0402V51.9918C14.0786 52.1817 14.2341 52.3348 14.4269 52.3348H42.5814C42.7742 52.3348 42.9298 52.1817 42.9298 51.9918V15.0402C42.9298 14.8504 42.7742 14.6972 42.5814 14.6972H39.3031V13.166H42.5814C43.6327 13.166 44.4849 14.0051 44.4849 15.0402V51.9918C44.4849 53.0269 43.6327 53.866 42.5814 53.866Z" fill="#231815"/>
<path d="M38.0097 15.683H18.9933C17.8487 15.683 16.9219 14.7643 16.9219 13.6434V8.72514C16.9219 7.59816 17.855 6.67943 18.9933 6.67943H23.0243C23.4037 4.03959 25.7116 2 28.4984 2C31.2852 2 33.5993 4.03959 33.9788 6.67943H38.0097C39.1543 6.67943 40.0812 7.59816 40.0812 8.72514V13.6434C40.0812 14.7704 39.1481 15.683 38.0097 15.683ZM18.9933 8.21678C18.7072 8.21678 18.477 8.4434 18.477 8.73127V13.6496C18.477 13.9313 18.7072 14.1579 18.9933 14.1579H38.0097C38.2959 14.1579 38.526 13.9313 38.526 13.6496V8.73127C38.526 8.44952 38.2959 8.21678 38.0097 8.21678H32.4796V7.45116C32.4796 5.2952 30.6943 3.53735 28.5046 3.53735C26.315 3.53735 24.5297 5.2952 24.5297 7.45116V8.21678H18.9996H18.9933Z" fill="#231815"/>
<path d="M28.5064 10.5505C26.8891 10.5505 25.5703 9.25198 25.5703 7.65951C25.5703 6.06703 26.8891 4.76855 28.5064 4.76855C30.1238 4.76855 31.4426 6.06703 31.4426 7.65951C31.4426 9.25198 30.1238 10.5505 28.5064 10.5505ZM28.5064 6.29366C27.7413 6.29366 27.1255 6.90615 27.1255 7.65338C27.1255 8.40062 27.7475 9.01311 28.5064 9.01311C29.2654 9.01311 29.8874 8.40062 29.8874 7.65338C29.8874 6.90615 29.2654 6.29366 28.5064 6.29366Z" fill="#231815"/>
<path d="M21.2555 26.9409L17.9648 23.0516C17.6911 22.7269 17.7347 22.2431 18.0644 21.9736C18.3941 21.7041 18.8855 21.747 19.1592 22.0716L20.9818 24.2275L23.5447 19.5787C23.75 19.2051 24.2228 19.0704 24.596 19.2725C24.9755 19.4746 25.1123 19.9401 24.907 20.3076L21.2493 26.9409H21.2555Z" fill="#F8B62D"/>
<path d="M38.3704 21.5635H29.4065C28.9773 21.5635 28.6289 21.2205 28.6289 20.7978C28.6289 20.3752 28.9773 20.0322 29.4065 20.0322H38.3704C38.7996 20.0322 39.1479 20.3752 39.1479 20.7978C39.1479 21.2205 38.7996 21.5635 38.3704 21.5635Z" fill="#231815"/>
<path d="M38.3704 25.4961H29.4065C28.9773 25.4961 28.6289 25.1531 28.6289 24.7305C28.6289 24.3078 28.9773 23.9648 29.4065 23.9648H38.3704C38.7996 23.9648 39.1479 24.3078 39.1479 24.7305C39.1479 25.1531 38.7996 25.4961 38.3704 25.4961Z" fill="#231815"/>
<path d="M21.2555 37.6714L17.9648 33.782C17.6911 33.4574 17.7347 32.9735 18.0644 32.7041C18.3941 32.4346 18.8855 32.4774 19.1592 32.8021L20.9818 34.958L23.5447 30.3092C23.75 29.9356 24.2228 29.8008 24.596 30.003C24.9755 30.2051 25.1123 30.6706 24.907 31.0381L21.2493 37.6714H21.2555Z" fill="#F8B62D"/>
<path d="M38.3704 32.2881H29.4065C28.9773 32.2881 28.6289 31.9451 28.6289 31.5224C28.6289 31.0998 28.9773 30.7568 29.4065 30.7568H38.3704C38.7996 30.7568 39.1479 31.0998 39.1479 31.5224C39.1479 31.9451 38.7996 32.2881 38.3704 32.2881Z" fill="#231815"/>
<path d="M38.3704 36.2265H29.4065C28.9773 36.2265 28.6289 35.8835 28.6289 35.4609C28.6289 35.0383 28.9773 34.6953 29.4065 34.6953H38.3704C38.7996 34.6953 39.1479 35.0383 39.1479 35.4609C39.1479 35.8835 38.7996 36.2265 38.3704 36.2265Z" fill="#231815"/>
<path d="M21.2555 47.9614L17.9648 44.0721C17.6911 43.7475 17.7347 43.2636 18.0644 42.9941C18.3941 42.7246 18.8855 42.7675 19.1592 43.0921L20.9818 45.2481L23.5447 40.5993C23.75 40.2256 24.2228 40.0909 24.596 40.293C24.9755 40.4951 25.1123 40.9606 24.907 41.3342L21.2493 47.9675L21.2555 47.9614Z" fill="#F8B62D"/>
<path d="M38.3704 42.584H29.4065C28.9773 42.584 28.6289 42.241 28.6289 41.8183C28.6289 41.3957 28.9773 41.0527 29.4065 41.0527H38.3704C38.7996 41.0527 39.1479 41.3957 39.1479 41.8183C39.1479 42.241 38.7996 42.584 38.3704 42.584Z" fill="#231815"/>
<path d="M38.3704 46.5224H29.4065C28.9773 46.5224 28.6289 46.1794 28.6289 45.7568C28.6289 45.3342 28.9773 44.9912 29.4065 44.9912H38.3704C38.7996 44.9912 39.1479 45.3342 39.1479 45.7568C39.1479 46.1794 38.7996 46.5224 38.3704 46.5224Z" fill="#231815"/>
</g>
<defs>
<clipPath id="clip0_1852_10257">
<rect width="41" height="56" fill="white" transform="translate(8 2)"/>
</clipPath>
</defs>
</svg>
