<svg width="60" height="60" viewBox="0 0 60 60" fill="none" xmlns="http://www.w3.org/2000/svg">
<g clip-path="url(#clip0_1852_10300)">
<path d="M39.9675 11.6081C32.1341 3.77647 19.4312 3.77647 11.5977 11.6081C3.76429 19.4397 3.76429 32.1396 11.5977 39.9712C19.4312 47.8028 32.1341 47.8028 39.9675 39.9712C47.801 32.1396 47.801 19.4397 39.9675 11.6081ZM15.685 35.8849C10.1099 30.311 10.1099 21.2682 15.685 15.6944C21.2602 10.1205 30.3051 10.1205 35.8803 15.6944C41.4554 21.2682 41.4554 30.311 35.8803 35.8849C30.3051 41.4587 21.2602 41.4587 15.685 35.8849Z" fill="#FF6600"/>
<path d="M20.8359 26.3457V25.443H22.115L21.2221 21.667H22.7545L23.5268 25.443H24.7938L25.735 21.667H27.0744L27.9191 25.443H29.0775L29.8015 21.667H31.3098L30.429 25.443H31.6718V26.3457H30.2238L29.2102 30.8337H27.8829L26.9055 26.3457H25.7471L24.6731 30.8337H23.3941L22.3322 26.3457H20.8359ZM23.6957 26.3457L24.0819 28.3545L24.5887 26.3457H23.6957ZM28.1001 26.3457L28.5586 28.4307L28.9085 26.3457H28.1001ZM26.3745 23.7648L25.9643 25.443H26.7124L26.3745 23.7648Z" fill="black"/>
<path d="M25.7851 40.8005C21.7743 40.8005 18.0046 39.2365 15.1699 36.4026C9.31836 30.5524 9.31836 21.0274 15.1699 15.1714C18.0046 12.3374 21.7743 10.7734 25.7851 10.7734C29.7959 10.7734 33.5656 12.3374 36.4002 15.1714C39.2348 18.0053 40.7992 21.7741 40.7992 25.784C40.7992 29.7939 39.2348 33.5627 36.4002 36.3967C33.5656 39.2306 29.7959 40.7946 25.7851 40.7946V40.8005ZM25.7851 12.2492C22.1683 12.2492 18.7632 13.6603 16.205 16.2179C10.9239 21.4978 10.9239 30.0879 16.205 35.3677C18.7632 37.9254 22.1624 39.3365 25.7851 39.3365C29.4077 39.3365 32.8069 37.9254 35.3593 35.3677C37.9116 32.8101 39.3289 29.4117 39.3289 25.7899C39.3289 22.1681 37.9175 18.7697 35.3593 16.2121C32.8011 13.6544 29.4019 12.2433 25.7851 12.2433V12.2492Z" fill="#231815"/>
<path d="M25.7848 46.5804C20.2332 46.5804 15.0109 44.4167 11.0824 40.4892C2.97254 32.3871 2.97254 19.1933 11.0824 11.0913C15.0109 7.16369 20.2332 5 25.7848 5C31.3364 5 36.5588 7.16369 40.4872 11.0913C48.5971 19.1992 48.5971 32.3871 40.4872 40.4951C36.5588 44.4226 31.3364 46.5863 25.7848 46.5863V46.5804ZM25.7848 6.4699C20.6213 6.4699 15.7695 8.48071 12.1233 12.1261C4.5898 19.6637 4.5898 31.9167 12.1233 39.4485C15.7754 43.0997 20.6272 45.1047 25.7848 45.1047C30.9424 45.1047 35.8001 43.0938 39.4522 39.4485C46.9857 31.9167 46.9857 19.6578 39.4522 12.1261C35.8001 8.47484 30.9483 6.4699 25.7907 6.4699H25.7848Z" fill="#231815"/>
<path d="M49.5083 54.9997C49.0731 54.9997 48.6556 54.8469 48.338 54.5294L36.9583 43.1524C36.6701 42.8643 36.6701 42.3998 36.9583 42.1117C37.2465 41.8236 37.7111 41.8236 37.9992 42.1117L49.3789 53.4887C49.4495 53.5592 49.6788 53.5475 49.8612 53.3652L53.3603 49.8669C53.5485 49.6787 53.5544 49.4553 53.4838 49.3789L42.11 38.0077C41.8219 37.7196 41.8219 37.2552 42.11 36.9671C42.3982 36.679 42.8628 36.679 43.151 36.9671L54.5306 48.3382C55.2011 49.0143 55.1482 50.1608 54.4072 50.9017L50.908 54.4C50.5139 54.794 50.0023 54.9939 49.5142 54.9939L49.5083 54.9997Z" fill="#231815"/>
</g>
<defs>
<clipPath id="clip0_1852_10300">
<rect width="50" height="50" fill="white" transform="translate(5 5)"/>
</clipPath>
</defs>
</svg>
