<svg width="60" height="60" viewBox="0 0 60 60" fill="none" xmlns="http://www.w3.org/2000/svg">
<path d="M34.5277 3.78809L32.0856 5.04687L29.6436 3.78809L27.2015 5.04687L24.7595 3.78809L22.3237 5.04687L19.8817 3.78809L17.4459 5.04687L15.0039 3.78809V18.1923H34.5277V3.78809Z" fill="#F8D340"/>
<path d="M38.6955 58.0017H10.8449C9.27767 58.0017 8 56.7304 8 55.1632V13.8561C8 12.289 9.27767 11.0176 10.8449 11.0176H15.0051C15.4394 11.0176 15.7919 11.37 15.7919 11.8043C15.7919 12.2386 15.4394 12.5911 15.0051 12.5911H10.8449C10.1462 12.5911 9.57348 13.1575 9.57348 13.8561V55.1569C9.57348 55.8555 10.1399 56.422 10.8449 56.422H38.6955C39.3941 56.422 39.9606 55.8555 39.9606 55.1569V13.8561C39.9606 13.1575 39.3941 12.5911 38.6955 12.5911H34.5289C34.0946 12.5911 33.7422 12.2386 33.7422 11.8043C33.7422 11.37 34.0946 11.0176 34.5289 11.0176H38.6955C40.2627 11.0176 41.534 12.289 41.534 13.8561V55.1569C41.534 56.7241 40.2627 57.9954 38.6955 57.9954V58.0017Z" fill="#231815"/>
<path d="M36.4102 18.9797H13.1227C12.6884 18.9797 12.3359 18.6273 12.3359 18.193C12.3359 17.7587 12.6884 17.4062 13.1227 17.4062H36.4102C36.8445 17.4062 37.1969 17.7587 37.1969 18.193C37.1969 18.6273 36.8445 18.9797 36.4102 18.9797Z" fill="#231815"/>
<path d="M35.0434 35.1356H14.4874C13.0146 35.1356 11.8125 33.9335 11.8125 32.4607V24.7003C11.8125 23.2275 13.0146 22.0254 14.4874 22.0254H35.0497C36.5225 22.0254 37.7246 23.2275 37.7246 24.7003V32.4607C37.7246 33.9335 36.5225 35.1356 35.0497 35.1356H35.0434ZM14.4874 23.5989C13.8832 23.5989 13.386 24.0961 13.386 24.7003V32.4607C13.386 33.0649 13.8832 33.5622 14.4874 33.5622H35.0497C35.6539 33.5622 36.1511 33.0649 36.1511 32.4607V24.7003C36.1511 24.0961 35.6539 23.5989 35.0497 23.5989H14.4874Z" fill="#231815"/>
<path d="M35.7831 41.4795H31.3774C31.0312 41.4795 30.748 41.1963 30.748 40.8501C30.748 40.5039 31.0312 40.2207 31.3774 40.2207H35.7831C36.1293 40.2207 36.4125 40.5039 36.4125 40.8501C36.4125 41.1963 36.1293 41.4795 35.7831 41.4795ZM26.9716 41.4795H22.5659C22.2197 41.4795 21.9365 41.1963 21.9365 40.8501C21.9365 40.5039 22.2197 40.2207 22.5659 40.2207H26.9716C27.3178 40.2207 27.601 40.5039 27.601 40.8501C27.601 41.1963 27.3178 41.4795 26.9716 41.4795ZM18.1601 41.4795H13.7544C13.4082 41.4795 13.125 41.1963 13.125 40.8501C13.125 40.5039 13.4082 40.2207 13.7544 40.2207H18.1601C18.5063 40.2207 18.7895 40.5039 18.7895 40.8501C18.7895 41.1963 18.5063 41.4795 18.1601 41.4795Z" fill="#EB2149"/>
<path d="M35.7831 47.0312H31.3774C31.0312 47.0312 30.748 46.748 30.748 46.4019C30.748 46.0557 31.0312 45.7725 31.3774 45.7725H35.7831C36.1293 45.7725 36.4125 46.0557 36.4125 46.4019C36.4125 46.748 36.1293 47.0312 35.7831 47.0312ZM26.9716 47.0312H22.5659C22.2197 47.0312 21.9365 46.748 21.9365 46.4019C21.9365 46.0557 22.2197 45.7725 22.5659 45.7725H26.9716C27.3178 45.7725 27.601 46.0557 27.601 46.4019C27.601 46.748 27.3178 47.0312 26.9716 47.0312ZM18.1601 47.0312H13.7544C13.4082 47.0312 13.125 46.748 13.125 46.4019C13.125 46.0557 13.4082 45.7725 13.7544 45.7725H18.1601C18.5063 45.7725 18.7895 46.0557 18.7895 46.4019C18.7895 46.748 18.5063 47.0312 18.1601 47.0312Z" fill="#EB2149"/>
<path d="M35.7831 52.2861H31.3774C31.0312 52.2861 30.748 52.0029 30.748 51.6567C30.748 51.3106 31.0312 51.0273 31.3774 51.0273H35.7831C36.1293 51.0273 36.4125 51.3106 36.4125 51.6567C36.4125 52.0029 36.1293 52.2861 35.7831 52.2861ZM26.9716 52.2861H22.5659C22.2197 52.2861 21.9365 52.0029 21.9365 51.6567C21.9365 51.3106 22.2197 51.0273 22.5659 51.0273H26.9716C27.3178 51.0273 27.601 51.3106 27.601 51.6567C27.601 52.0029 27.3178 52.2861 26.9716 52.2861ZM18.1601 52.2861H13.7544C13.4082 52.2861 13.125 52.0029 13.125 51.6567C13.125 51.3106 13.4082 51.0273 13.7544 51.0273H18.1601C18.5063 51.0273 18.7895 51.3106 18.7895 51.6567C18.7895 52.0029 18.5063 52.2861 18.1601 52.2861Z" fill="#EB2149"/>
<path d="M49.4333 58.0017H44.8702C43.3975 58.0017 42.1953 56.7996 42.1953 55.3268V13.6925C42.1953 12.2197 43.3975 11.0176 44.8702 11.0176H49.4333C50.9061 11.0176 52.1082 12.2197 52.1082 13.6925V55.3268C52.1082 56.7996 50.9061 58.0017 49.4333 58.0017ZM44.8702 12.5911C44.266 12.5911 43.7688 13.0883 43.7688 13.6925V55.3268C43.7688 55.931 44.266 56.4283 44.8702 56.4283H49.4333C50.0375 56.4283 50.5348 55.931 50.5348 55.3268V13.6925C50.5348 13.0883 50.0375 12.5911 49.4333 12.5911H44.8702Z" fill="#231815"/>
<path d="M34.5293 18.9792H15.0055C14.5712 18.9792 14.2188 18.6268 14.2188 18.1925V2.78831C14.2188 2.51138 14.3635 2.25962 14.5964 2.11486C14.8293 1.9701 15.1251 1.96381 15.3642 2.08969L17.4412 3.15966L19.5182 2.08969C19.7448 1.9701 20.0155 1.9701 20.242 2.08969L22.319 3.15966L24.396 2.08969C24.6226 1.9701 24.8932 1.9701 25.1198 2.08969L27.1968 3.15966L29.2738 2.08969C29.5004 1.9701 29.771 1.9701 29.9976 2.08969L32.0809 3.16595L34.1642 2.08969C34.4097 1.96381 34.6992 1.9764 34.9321 2.11486C35.1649 2.25962 35.3097 2.51138 35.3097 2.78831V18.1925C35.3097 18.6268 34.9572 18.9792 34.523 18.9792H34.5293ZM15.7922 17.4058H33.7425V4.07857L32.446 4.74573C32.2194 4.85902 31.9487 4.85902 31.7285 4.74573L29.6452 3.66946L27.5682 4.73943C27.3416 4.85902 27.0709 4.85902 26.8444 4.73943L24.7674 3.66946L22.6904 4.73943C22.4638 4.85902 22.1932 4.85902 21.9666 4.73943L19.8896 3.66946L17.8126 4.73943C17.586 4.85902 17.3154 4.85902 17.0888 4.73943L15.7985 4.07228V17.3995L15.7922 17.4058Z" fill="#231815"/>
</svg>
