<svg width="14" height="8" viewBox="0 0 14 8" fill="none" xmlns="http://www.w3.org/2000/svg">
<path d="M12.602 0.0163517C12.2312 0.016427 11.8756 0.15667 11.6134 0.406234L7.00874 4.78808L2.4041 0.406234C2.27511 0.279143 2.12081 0.17777 1.95021 0.108031C1.77962 0.0382929 1.59613 0.00158501 1.41046 4.95911e-05C1.2248 -0.00148582 1.04067 0.0321832 0.868819 0.0990896C0.696971 0.165997 0.540847 0.264802 0.409556 0.38974C0.278264 0.514679 0.174435 0.663249 0.104127 0.826782C0.0338188 0.990314 -0.0015606 1.16553 5.27961e-05 1.34222C0.00166619 1.5189 0.0402404 1.69351 0.113525 1.85586C0.186809 2.0182 0.293335 2.16503 0.426888 2.28778L6.02013 7.6104C6.28236 7.85986 6.63796 8 7.00874 8C7.37952 8 7.73512 7.85986 7.99735 7.6104L13.5906 2.28778C13.7861 2.10169 13.9192 1.86461 13.9731 1.60653C14.0271 1.34844 13.9994 1.08094 13.8936 0.837826C13.7878 0.594716 13.6086 0.386916 13.3787 0.240697C13.1488 0.0944796 12.8785 0.0164075 12.602 0.0163517Z" fill="#1F2A37"/>
</svg>
