<svg width="16" height="16" viewBox="0 0 16 16" fill="none" xmlns="http://www.w3.org/2000/svg">
<mask id="mask0_455_5943" style="mask-type:alpha" maskUnits="userSpaceOnUse" x="0" y="0" width="16" height="16">
<rect width="16" height="16" fill="#D9D9D9"/>
</mask>
<g mask="url(#mask0_455_5943)">
<path d="M3.87917 11.3987C4.44583 10.9654 5.07917 10.6237 5.77917 10.3737C6.47917 10.1237 7.2125 9.9987 7.97917 9.9987C8.74583 9.9987 9.47917 10.1237 10.1792 10.3737C10.8792 10.6237 11.5125 10.9654 12.0792 11.3987C12.4681 10.9431 12.7708 10.4265 12.9875 9.8487C13.2042 9.27092 13.3125 8.65425 13.3125 7.9987C13.3125 6.52092 12.7931 5.26259 11.7542 4.2237C10.7153 3.18481 9.45694 2.66536 7.97917 2.66536C6.50139 2.66536 5.24306 3.18481 4.20417 4.2237C3.16528 5.26259 2.64583 6.52092 2.64583 7.9987C2.64583 8.65425 2.75417 9.27092 2.97083 9.8487C3.1875 10.4265 3.49028 10.9431 3.87917 11.3987ZM7.97917 8.66536C7.32361 8.66536 6.77083 8.44036 6.32083 7.99036C5.87083 7.54036 5.64583 6.98759 5.64583 6.33203C5.64583 5.67648 5.87083 5.1237 6.32083 4.6737C6.77083 4.2237 7.32361 3.9987 7.97917 3.9987C8.63472 3.9987 9.1875 4.2237 9.6375 4.6737C10.0875 5.1237 10.3125 5.67648 10.3125 6.33203C10.3125 6.98759 10.0875 7.54036 9.6375 7.99036C9.1875 8.44036 8.63472 8.66536 7.97917 8.66536ZM7.97917 14.6654C7.05694 14.6654 6.19028 14.4904 5.37917 14.1404C4.56806 13.7904 3.8625 13.3154 3.2625 12.7154C2.6625 12.1154 2.1875 11.4098 1.8375 10.5987C1.4875 9.78759 1.3125 8.92092 1.3125 7.9987C1.3125 7.07648 1.4875 6.20981 1.8375 5.3987C2.1875 4.58759 2.6625 3.88203 3.2625 3.28203C3.8625 2.68203 4.56806 2.20703 5.37917 1.85703C6.19028 1.50703 7.05694 1.33203 7.97917 1.33203C8.90139 1.33203 9.76805 1.50703 10.5792 1.85703C11.3903 2.20703 12.0958 2.68203 12.6958 3.28203C13.2958 3.88203 13.7708 4.58759 14.1208 5.3987C14.4708 6.20981 14.6458 7.07648 14.6458 7.9987C14.6458 8.92092 14.4708 9.78759 14.1208 10.5987C13.7708 11.4098 13.2958 12.1154 12.6958 12.7154C12.0958 13.3154 11.3903 13.7904 10.5792 14.1404C9.76805 14.4904 8.90139 14.6654 7.97917 14.6654Z" fill="#444444"/>
</g>
</svg>
