<svg width="12" height="7" viewBox="0 0 12 7" fill="none" xmlns="http://www.w3.org/2000/svg">
<path d="M10.8017 0.014308C10.4839 0.0143738 10.179 0.137087 9.95433 0.355455L6.00749 4.18957L2.06066 0.355455C1.95009 0.24425 1.81784 0.155549 1.67161 0.0945277C1.52538 0.0335069 1.36811 0.0013876 1.20897 4.3869e-05C1.04982 -0.00129938 0.892 0.028161 0.744702 0.0867043C0.597404 0.145247 0.463583 0.231702 0.351048 0.341023C0.238512 0.450345 0.149516 0.580343 0.0892518 0.723434C0.0289875 0.866526 -0.00133766 1.01984 4.52538e-05 1.17444C0.00142816 1.32904 0.0344918 1.48182 0.0973067 1.62387C0.160122 1.76593 0.25143 1.8944 0.365904 2.00181L5.16012 6.6591C5.38488 6.87738 5.68968 7 6.00749 7C6.32531 7 6.63011 6.87738 6.85487 6.6591L11.6491 2.00181C11.8167 1.83898 11.9308 1.63153 11.977 1.40571C12.0232 1.17989 11.9995 0.94582 11.9088 0.733098C11.8181 0.520377 11.6645 0.338552 11.4674 0.210611C11.2704 0.0826702 11.0387 0.0143571 10.8017 0.014308Z" fill="#666666"/>
</svg>
