<svg width="20" height="20" viewBox="0 0 20 20" fill="none" xmlns="http://www.w3.org/2000/svg">
<mask id="path-1-inside-1_3214_3560" fill="white">
<path d="M3 4.58838C3 4.03609 3.44772 3.58838 4 3.58838H16C16.5523 3.58838 17 4.03609 17 4.58838V7.619H3V4.58838Z"/>
</mask>
<path d="M3 4.58838C3 4.03609 3.44772 3.58838 4 3.58838H16C16.5523 3.58838 17 4.03609 17 4.58838V7.619H3V4.58838Z" fill="#D9D9D9"/>
<path d="M1.8 4.58838C1.8 3.37335 2.78497 2.38838 4 2.38838H16C17.215 2.38838 18.2 3.37335 18.2 4.58838L15.8 4.78838H4.2L1.8 4.58838ZM18.2 8.619H1.8L4.2 6.619H15.8L18.2 8.619ZM1.8 8.619V4.58838C1.8 3.37335 2.78497 2.38838 4 2.38838L4.2 4.78838V6.619L1.8 8.619ZM16 2.38838C17.215 2.38838 18.2 3.37335 18.2 4.58838V8.619L15.8 6.619V4.78838L16 2.38838Z" fill="#363636" mask="url(#path-1-inside-1_3214_3560)"/>
<mask id="path-3-inside-2_3214_3560" fill="white">
<path d="M3 6.94092H17V15.7999C17 16.3522 16.5523 16.7999 16 16.7999H4C3.44772 16.7999 3 16.3522 3 15.7999V6.94092Z"/>
</mask>
<path d="M3 6.94092H17V15.7999C17 16.3522 16.5523 16.7999 16 16.7999H4C3.44772 16.7999 3 16.3522 3 15.7999V6.94092Z" fill="white"/>
<path d="M1.8 5.94092H18.2L15.8 7.94092H4.2L1.8 5.94092ZM18.2 15.7999C18.2 17.015 17.215 17.9999 16 17.9999H4C2.78497 17.9999 1.8 17.015 1.8 15.7999L4.2 15.5999H15.8L18.2 15.7999ZM4 17.9999C2.78497 17.9999 1.8 17.015 1.8 15.7999V5.94092L4.2 7.94092V15.5999L4 17.9999ZM18.2 5.94092V15.7999C18.2 17.015 17.215 17.9999 16 17.9999L15.8 15.5999V7.94092L18.2 5.94092Z" fill="#363636" mask="url(#path-3-inside-2_3214_3560)"/>
<path d="M6.11133 2.7998V5.16597" stroke="#363636" stroke-width="1.2" stroke-linecap="round" stroke-linejoin="round"/>
<path d="M13.8887 2.7998V5.16597" stroke="#363636" stroke-width="1.2" stroke-linecap="round" stroke-linejoin="round"/>
<rect x="6.11133" y="10.0371" width="1.55556" height="1.53801" fill="#363636"/>
<rect x="6.11133" y="12.4556" width="1.55556" height="1.53801" fill="#363636"/>
<rect x="9.22266" y="10.0371" width="1.55556" height="1.53801" fill="#363636"/>
<rect x="9.22266" y="12.4556" width="1.55556" height="1.53801" fill="#363636"/>
<rect x="12.333" y="10.0371" width="1.55556" height="1.53801" fill="#363636"/>
<rect x="12.333" y="12.4556" width="1.55556" height="1.53801" fill="#363636"/>
</svg>
