<svg width="24" height="24" viewBox="0 0 24 24" fill="none" xmlns="http://www.w3.org/2000/svg">
<mask id="path-1-inside-1_3215_18911" fill="white">
<path d="M3.6001 5.30615C3.6001 4.75387 4.04781 4.30615 4.6001 4.30615H19.4001C19.9524 4.30615 20.4001 4.75387 20.4001 5.30615V9.14289H3.6001V5.30615Z"/>
</mask>
<path d="M3.6001 5.30615C3.6001 4.75387 4.04781 4.30615 4.6001 4.30615H19.4001C19.9524 4.30615 20.4001 4.75387 20.4001 5.30615V9.14289H3.6001V5.30615Z" fill="#D9D9D9"/>
<path d="M2.4001 5.30615C2.4001 4.09113 3.38507 3.10615 4.6001 3.10615H19.4001C20.6151 3.10615 21.6001 4.09113 21.6001 5.30615L19.2001 5.50615H4.8001L2.4001 5.30615ZM21.6001 10.1429H2.4001L4.8001 8.14289H19.2001L21.6001 10.1429ZM2.4001 10.1429V5.30615C2.4001 4.09113 3.38507 3.10615 4.6001 3.10615L4.8001 5.50615V8.14289L2.4001 10.1429ZM19.4001 3.10615C20.6151 3.10615 21.6001 4.09113 21.6001 5.30615V10.1429L19.2001 8.14289V5.50615L19.4001 3.10615Z" fill="#363636" mask="url(#path-1-inside-1_3215_18911)"/>
<mask id="path-3-inside-2_3215_18911" fill="white">
<path d="M3.6001 8.3291H20.4001V19.1599C20.4001 19.7122 19.9524 20.1599 19.4001 20.1599H4.6001C4.04781 20.1599 3.6001 19.7122 3.6001 19.1599V8.3291Z"/>
</mask>
<path d="M3.6001 8.3291H20.4001V19.1599C20.4001 19.7122 19.9524 20.1599 19.4001 20.1599H4.6001C4.04781 20.1599 3.6001 19.7122 3.6001 19.1599V8.3291Z" fill="white"/>
<path d="M2.4001 7.3291H21.6001L19.2001 9.3291H4.8001L2.4001 7.3291ZM21.6001 19.1599C21.6001 20.375 20.6151 21.3599 19.4001 21.3599H4.6001C3.38507 21.3599 2.4001 20.375 2.4001 19.1599L4.8001 18.9599H19.2001L21.6001 19.1599ZM4.6001 21.3599C3.38507 21.3599 2.4001 20.375 2.4001 19.1599V7.3291L4.8001 9.3291V18.9599L4.6001 21.3599ZM21.6001 7.3291V19.1599C21.6001 20.375 20.6151 21.3599 19.4001 21.3599L19.2001 18.9599V9.3291L21.6001 7.3291Z" fill="#363636" mask="url(#path-3-inside-2_3215_18911)"/>
<path d="M7.3335 3.35986V6.19926" stroke="#363636" stroke-width="1.2" stroke-linecap="round" stroke-linejoin="round"/>
<path d="M16.6665 3.35986V6.19926" stroke="#363636" stroke-width="1.2" stroke-linecap="round" stroke-linejoin="round"/>
<rect x="7.3335" y="12.0444" width="1.86667" height="1.84561" fill="#363636"/>
<rect x="7.3335" y="14.9468" width="1.86667" height="1.84561" fill="#363636"/>
<rect x="11.0674" y="12.0444" width="1.86667" height="1.84561" fill="#363636"/>
<rect x="11.0674" y="14.9468" width="1.86667" height="1.84561" fill="#363636"/>
<rect x="14.7998" y="12.0444" width="1.86667" height="1.84561" fill="#363636"/>
<rect x="14.7998" y="14.9468" width="1.86667" height="1.84561" fill="#363636"/>
</svg>
