<svg width="10" height="6" viewBox="0 0 10 6" fill="none" xmlns="http://www.w3.org/2000/svg">
<path d="M9.00142 0.0122638C8.73654 0.0123203 8.48254 0.117503 8.29527 0.304676L5.00624 3.59106L1.71721 0.304676C1.62508 0.209357 1.51487 0.133327 1.39301 0.0810237C1.27115 0.02872 1.14009 0.00118917 1.00747 3.76701e-05C0.874854 -0.00111383 0.743333 0.0241376 0.620585 0.0743175C0.497837 0.124497 0.386319 0.198601 0.29254 0.292305C0.19876 0.38601 0.124597 0.497437 0.0743765 0.620087C0.0241563 0.742736 -0.00111471 0.874151 3.77115e-05 1.00666C0.00119014 1.13918 0.0287432 1.27013 0.081089 1.39189C0.133435 1.51365 0.209525 1.62377 0.30492 1.71584L4.3001 5.7078C4.4874 5.8949 4.7414 6 5.00624 6C5.27109 6 5.52509 5.8949 5.71239 5.7078L9.70757 1.71584C9.84721 1.57626 9.9423 1.39846 9.98082 1.2049C10.0193 1.01133 9.99956 0.810703 9.92398 0.62837C9.8484 0.446037 9.72042 0.290187 9.55621 0.180523C9.392 0.0708598 9.19893 0.0123059 9.00142 0.0122638Z" fill="#777777"/>
</svg>
