<svg width="50" height="50" viewBox="0 0 50 50" fill="none" xmlns="http://www.w3.org/2000/svg">
<path d="M32.2915 22.9166C34.0174 22.9166 35.4165 21.5175 35.4165 19.7916C35.4165 18.0657 34.0174 16.6666 32.2915 16.6666C30.5656 16.6666 29.1665 18.0657 29.1665 19.7916C29.1665 21.5175 30.5656 22.9166 32.2915 22.9166Z" fill="#363636"/>
<path d="M17.7082 22.9166C19.4341 22.9166 20.8332 21.5175 20.8332 19.7916C20.8332 18.0657 19.4341 16.6666 17.7082 16.6666C15.9823 16.6666 14.5832 18.0657 14.5832 19.7916C14.5832 21.5175 15.9823 22.9166 17.7082 22.9166Z" fill="#363636"/>
<path d="M24.9998 33.3333C21.9165 33.3333 19.2707 31.6458 17.8123 29.1666H14.3332C15.9998 33.4375 20.1457 36.4583 24.9998 36.4583C29.854 36.4583 33.9998 33.4375 35.6665 29.1666H32.1873C30.729 31.6458 28.0832 33.3333 24.9998 33.3333ZM24.979 4.16663C13.479 4.16663 4.1665 13.5 4.1665 25C4.1665 36.5 13.479 45.8333 24.979 45.8333C36.4998 45.8333 45.8332 36.5 45.8332 25C45.8332 13.5 36.4998 4.16663 24.979 4.16663ZM24.9998 41.6666C15.7915 41.6666 8.33317 34.2083 8.33317 25C8.33317 15.7916 15.7915 8.33329 24.9998 8.33329C34.2082 8.33329 41.6665 15.7916 41.6665 25C41.6665 34.2083 34.2082 41.6666 24.9998 41.6666Z" fill="#363636"/>
</svg>
