<svg width="12" height="12" viewBox="0 0 12 12" fill="none" xmlns="http://www.w3.org/2000/svg">
<path fill-rule="evenodd" clip-rule="evenodd" d="M6.19926 1.00001C5.13838 1.00001 4.12096 1.42144 3.37081 2.17159C2.62066 2.92174 2.19923 3.93916 2.19923 5.00004C2.19923 6.54908 3.2071 8.05219 4.31222 9.2187C4.85455 9.79116 5.39858 10.2598 5.80759 10.5855C5.95981 10.7067 6.09277 10.8077 6.19926 10.8864C6.30575 10.8077 6.4387 10.7067 6.59092 10.5855C6.99993 10.2598 7.54396 9.79116 8.08629 9.2187C9.19141 8.05219 10.1993 6.54908 10.1993 5.00004C10.1993 3.93916 9.77786 2.92174 9.02771 2.17159C8.27755 1.42144 7.26013 1.00001 6.19926 1.00001ZM6.19926 11.5001C5.92191 11.9161 5.92178 11.916 5.92163 11.9159L5.92021 11.915L5.91687 11.9127L5.90541 11.905C5.89568 11.8984 5.88179 11.8889 5.86403 11.8766C5.82852 11.852 5.77749 11.8162 5.71315 11.7697C5.58453 11.6768 5.40243 11.5412 5.18466 11.3678C4.74991 11.0216 4.16894 10.5215 3.58626 9.90645C2.44136 8.69794 1.19922 6.95102 1.19922 5.00004C1.19922 3.67395 1.72601 2.40217 2.6637 1.46448C3.60138 0.526788 4.87316 0 6.19926 0C7.52535 0 8.79713 0.526788 9.73482 1.46448C10.6725 2.40217 11.1993 3.67395 11.1993 5.00004C11.1993 6.95102 9.95715 8.69794 8.81225 9.90645C8.22958 10.5215 7.6486 11.0216 7.21385 11.3678C6.99608 11.5412 6.81399 11.6768 6.68537 11.7697C6.62103 11.8162 6.56999 11.852 6.53448 11.8766C6.51672 11.8889 6.50284 11.8984 6.4931 11.905L6.48164 11.9127L6.47831 11.915L6.47725 11.9157C6.47711 11.9158 6.47661 11.9161 6.19926 11.5001ZM6.19926 11.5001L6.47661 11.9161C6.30866 12.0281 6.08958 12.0279 5.92163 11.9159L6.19926 11.5001Z" fill="#333333"/>
<path fill-rule="evenodd" clip-rule="evenodd" d="M6.19923 4.00001C5.64694 4.00001 5.19923 4.44773 5.19923 5.00002C5.19923 5.5523 5.64694 6.00002 6.19923 6.00002C6.75152 6.00002 7.19924 5.5523 7.19924 5.00002C7.19924 4.44773 6.75152 4.00001 6.19923 4.00001ZM4.19922 5.00002C4.19922 3.89544 5.09466 3 6.19923 3C7.30381 3 8.19925 3.89544 8.19925 5.00002C8.19925 6.10459 7.30381 7.00003 6.19923 7.00003C5.09466 7.00003 4.19922 6.10459 4.19922 5.00002Z" fill="#333333"/>
</svg>
