<svg width="24" height="24" viewBox="0 0 24 24" fill="none" xmlns="http://www.w3.org/2000/svg">
<path d="M16.0005 8.30857V5.30857H8.00054V8.30857H6.50056V3.80859H17.5005V8.30857H16.0005ZM17.8082 12.3085C18.0915 12.3085 18.329 12.2127 18.5207 12.021C18.7124 11.8294 18.8082 11.5919 18.8082 11.3085C18.8082 11.0252 18.7124 10.7877 18.5207 10.596C18.329 10.4044 18.0915 10.3085 17.8082 10.3085C17.5249 10.3085 17.2874 10.4044 17.0957 10.596C16.904 10.7877 16.8082 11.0252 16.8082 11.3085C16.8082 11.5919 16.904 11.8294 17.0957 12.021C17.2874 12.2127 17.5249 12.3085 17.8082 12.3085ZM16.0005 19.0008V14.7316H8.00054V19.0008H16.0005ZM17.5005 20.5008H6.50056V16.5008H2.78906V10.8085C2.78906 10.1002 3.03105 9.50646 3.51501 9.02729C3.99898 8.54814 4.59031 8.30857 5.28901 8.30857H18.7121C19.4204 8.30857 20.0141 8.54814 20.4933 9.02729C20.9724 9.50646 21.212 10.1002 21.212 10.8085V16.5008H17.5005V20.5008ZM19.7121 15.0008V10.8085C19.7121 10.5252 19.6162 10.2877 19.4246 10.096C19.2329 9.90435 18.9954 9.80852 18.7121 9.80852H5.28901C5.00568 9.80852 4.76818 9.90435 4.57651 10.096C4.38485 10.2877 4.28901 10.5252 4.28901 10.8085V15.0008H6.50056V13.2316H17.5005V15.0008H19.7121Z" fill="#333333"/>
</svg>
