<svg width="16" height="16" viewBox="0 0 16 16" fill="none" xmlns="http://www.w3.org/2000/svg">
<mask id="mask0_921_5503" style="mask-type:alpha" maskUnits="userSpaceOnUse" x="0" y="0" width="16" height="16">
<rect width="16" height="16" fill="#D9D9D9"/>
</mask>
<g mask="url(#mask0_921_5503)">
<path d="M7.9966 11.2C8.1656 11.2 8.30843 11.1428 8.4251 11.0285C8.54176 10.9141 8.6001 10.7725 8.6001 10.6035C8.6001 10.4345 8.54293 10.2916 8.4286 10.175C8.31426 10.0583 8.1726 9.99998 8.0036 9.99998C7.8346 9.99998 7.69176 10.0571 7.5751 10.1715C7.45843 10.2858 7.4001 10.4275 7.4001 10.5965C7.4001 10.7655 7.45726 10.9083 7.5716 11.025C7.68593 11.1416 7.8276 11.2 7.9966 11.2ZM7.4001 8.79998H8.6001V4.79998H7.4001V8.79998ZM8.00476 14.4C7.12388 14.4 6.29454 14.2333 5.51676 13.9C4.73899 13.5666 4.05843 13.1083 3.4751 12.525C2.89176 11.9416 2.43343 11.2613 2.1001 10.484C1.76676 9.70664 1.6001 8.87609 1.6001 7.99231C1.6001 7.10853 1.76676 6.28053 2.1001 5.50831C2.43343 4.73609 2.89176 4.05831 3.4751 3.47498C4.05843 2.89164 4.73876 2.43331 5.5161 2.09998C6.29343 1.76664 7.12399 1.59998 8.00776 1.59998C8.89154 1.59998 9.71954 1.76664 10.4918 2.09998C11.264 2.43331 11.9418 2.89164 12.5251 3.47498C13.1084 4.05831 13.5668 4.73731 13.9001 5.51198C14.2334 6.28675 14.4001 7.11453 14.4001 7.99531C14.4001 8.8762 14.2334 9.70553 13.9001 10.4833C13.5668 11.2611 13.1084 11.9416 12.5251 12.525C11.9418 13.1083 11.2628 13.5666 10.4881 13.9C9.71332 14.2333 8.88554 14.4 8.00476 14.4ZM8.0001 13.2C9.44454 13.2 10.6723 12.6944 11.6834 11.6833C12.6945 10.6722 13.2001 9.44442 13.2001 7.99998C13.2001 6.55553 12.6945 5.32775 11.6834 4.31664C10.6723 3.30553 9.44454 2.79998 8.0001 2.79998C6.55565 2.79998 5.32788 3.30553 4.31676 4.31664C3.30565 5.32775 2.8001 6.55553 2.8001 7.99998C2.8001 9.44442 3.30565 10.6722 4.31676 11.6833C5.32788 12.6944 6.55565 13.2 8.0001 13.2Z" fill="#333333" stroke="#333333" stroke-width="0.2"/>
</g>
</svg>
