<svg width="16" height="16" viewBox="0 0 16 16" fill="none" xmlns="http://www.w3.org/2000/svg">
<mask id="mask0_3535_22082" style="mask-type:alpha" maskUnits="userSpaceOnUse" x="0" y="0" width="16" height="16">
<rect width="16" height="16" fill="#D9D9D9"/>
</mask>
<g mask="url(#mask0_3535_22082)">
<path d="M8.0026 11.3335C8.19149 11.3335 8.34983 11.2696 8.4776 11.1418C8.60538 11.0141 8.66927 10.8557 8.66927 10.6668C8.66927 10.4779 8.60538 10.3196 8.4776 10.1918C8.34983 10.0641 8.19149 10.0002 8.0026 10.0002C7.81372 10.0002 7.65538 10.0641 7.52761 10.1918C7.39983 10.3196 7.33594 10.4779 7.33594 10.6668C7.33594 10.8557 7.39983 11.0141 7.52761 11.1418C7.65538 11.2696 7.81372 11.3335 8.0026 11.3335ZM7.33594 8.66683H8.66927V4.66683H7.33594V8.66683ZM8.0026 14.6668C7.08038 14.6668 6.21372 14.4918 5.4026 14.1418C4.59149 13.7918 3.88594 13.3168 3.28594 12.7168C2.68594 12.1168 2.21094 11.4113 1.86094 10.6002C1.51094 9.78905 1.33594 8.92239 1.33594 8.00016C1.33594 7.07794 1.51094 6.21127 1.86094 5.40016C2.21094 4.58905 2.68594 3.8835 3.28594 3.2835C3.88594 2.6835 4.59149 2.2085 5.4026 1.8585C6.21372 1.5085 7.08038 1.3335 8.0026 1.3335C8.92483 1.3335 9.79149 1.5085 10.6026 1.8585C11.4137 2.2085 12.1193 2.6835 12.7193 3.2835C13.3193 3.8835 13.7943 4.58905 14.1443 5.40016C14.4943 6.21127 14.6693 7.07794 14.6693 8.00016C14.6693 8.92239 14.4943 9.78905 14.1443 10.6002C13.7943 11.4113 13.3193 12.1168 12.7193 12.7168C12.1193 13.3168 11.4137 13.7918 10.6026 14.1418C9.79149 14.4918 8.92483 14.6668 8.0026 14.6668Z" fill="#666666"/>
</g>
</svg>
