<svg width="20" height="20" viewBox="0 0 20 20" fill="none" xmlns="http://www.w3.org/2000/svg">
<path d="M16.375 1H3.625C2.17525 1 1 2.17525 1 3.625V16.375C1 17.8247 2.17525 19 3.625 19H16.375C17.8247 19 19 17.8247 19 16.375V3.625C19 2.17525 17.8247 1 16.375 1Z" fill="#231F20" stroke="#D63A2B" stroke-miterlimit="10"/>
<path d="M16.5395 13.9928C16.442 13.8278 16.3385 13.7003 16.2282 13.611C16.1135 13.521 16.0085 13.4603 15.9132 13.4273C15.818 13.395 15.773 13.3763 15.7782 13.371C15.7835 13.371 15.8217 13.3508 15.8945 13.311C15.9665 13.2713 16.043 13.2038 16.1232 13.1085C16.208 13.014 16.2845 12.885 16.352 12.723C16.4195 12.561 16.4532 12.3548 16.4532 12.105C16.4532 11.8155 16.397 11.5778 16.2845 11.3933C16.172 11.2088 16.0407 11.0633 15.8915 10.959C15.7415 10.854 15.5877 10.782 15.431 10.7415C15.2735 10.7018 15.1497 10.6815 15.0605 10.6815H10.7525V14.3378C10.7525 14.6273 10.6835 14.8763 10.5462 15.0833C10.409 15.2903 10.2125 15.3938 9.9582 15.3938C9.70395 15.3938 9.50595 15.2903 9.36645 15.0833C9.2262 14.8763 9.15645 14.6273 9.15645 14.3378V10.6815H6.0627V12.8618H4.4667V11.0715H4.65495C4.72845 11.2283 4.88745 11.337 5.07195 11.337C5.3262 11.337 5.53245 11.13 5.53245 10.8765C5.53245 10.623 5.3262 10.416 5.07195 10.416C4.88745 10.416 4.7292 10.5248 4.65495 10.6815H3.48945H3.2832V16.263H4.4667H4.65495C4.72845 16.4198 4.88745 16.5285 5.07195 16.5285C5.3262 16.5285 5.53245 16.3215 5.53245 16.068C5.53245 15.8145 5.3262 15.6075 5.07195 15.6075C4.88745 15.6075 4.7292 15.7163 4.65495 15.873H4.4667V13.8743H6.0627V16.2645H7.2537V11.6948H7.97295V14.1668C7.97295 14.856 8.14395 15.402 8.48595 15.804C8.82795 16.206 9.31845 16.407 9.9582 16.407C10.598 16.407 11.0817 16.206 11.4267 15.804C11.771 15.402 11.9435 14.856 11.9435 14.1668V11.6948H12.6477V12.378C12.2997 12.5903 12.0657 12.972 12.0657 13.4085C12.0657 13.845 12.2997 14.2268 12.6477 14.4383V16.272H15.1947C15.2795 16.272 15.4047 16.2503 15.569 16.2083C15.734 16.1655 15.899 16.0845 16.0632 15.9645C16.2282 15.8445 16.373 15.6788 16.4975 15.4665C16.622 15.2543 16.685 14.9783 16.685 14.6385C16.685 14.3738 16.6362 14.1593 16.5387 13.9943L16.5395 13.9928ZM5.07045 10.6943C5.17095 10.6943 5.25195 10.776 5.25195 10.8758C5.25195 10.9755 5.1702 11.058 5.07045 11.058C4.9707 11.058 4.88895 10.9763 4.88895 10.8758C4.88895 10.7753 4.96995 10.6943 5.07045 10.6943ZM5.07045 15.885C5.17095 15.885 5.25195 15.9668 5.25195 16.0665C5.25195 16.1663 5.1702 16.2488 5.07045 16.2488C4.9707 16.2488 4.88895 16.167 4.88895 16.0665C4.88895 15.966 4.96995 15.885 5.07045 15.885ZM13.2717 13.986C12.9522 13.986 12.692 13.7258 12.692 13.4063C12.692 13.0868 12.9522 12.8265 13.2717 12.8265C13.5912 12.8265 13.8515 13.0868 13.8515 13.4063C13.8515 13.7258 13.5912 13.986 13.2717 13.986ZM15.344 15.1013C15.2195 15.246 15.0815 15.3188 14.9322 15.3188H13.8387V14.4705C14.219 14.2673 14.4785 13.8668 14.4785 13.4063C14.4785 12.9458 14.219 12.5453 13.8387 12.342V11.6408H14.7755C14.9255 11.6408 15.0515 11.7105 15.1535 11.8508C15.2555 11.991 15.3072 12.1403 15.3072 12.3008C15.3072 12.4808 15.2562 12.6338 15.1535 12.7613C15.0507 12.8888 14.9247 12.9525 14.7755 12.9525C14.7755 12.9525 14.5872 12.9593 14.5872 13.1408V13.6553C14.5872 13.6553 14.5902 13.8435 14.7755 13.8435C14.9607 13.8435 14.9405 13.8435 14.9405 13.8435C15.0905 13.8435 15.2277 13.917 15.3522 14.0648C15.4767 14.2125 15.5397 14.3835 15.5397 14.5778C15.5345 14.7825 15.47 14.9573 15.3447 15.102L15.344 15.1013Z" fill="#FF5346"/>
<path d="M12.3432 7.688L12.5337 7.85825C12.6987 7.85825 12.8765 7.832 13.067 7.7795C13.2575 7.727 13.433 7.63625 13.5935 7.50725C13.754 7.379 13.8867 7.2065 13.9925 6.99125C14.0982 6.77525 14.1507 6.5045 14.1507 6.179C14.1462 5.8625 14.0982 5.594 14.006 5.3735C13.9137 5.153 13.7922 4.9745 13.6407 4.8365C13.4892 4.6985 13.3175 4.59875 13.1247 4.53725C12.932 4.475 12.737 4.44425 12.5397 4.44425H10.619V8.47775H9.3642L8.47845 6.93575L9.9102 4.4375H8.7537L7.9002 5.88275L7.0467 4.4375H5.8902L7.32195 6.93575L5.81445 9.572H7.08795L7.9002 7.97525L8.7192 9.572H11.7132V5.38025H12.4842C12.6492 5.38025 12.7857 5.456 12.8937 5.6075C13.0017 5.759 13.0557 5.94725 13.0557 6.17225C13.0512 6.40175 12.9995 6.5855 12.9012 6.72275C12.8022 6.86075 12.6635 6.929 12.485 6.929C12.485 6.929 12.3425 6.9335 12.3425 7.07225C12.3425 7.211 12.3432 7.688 12.3432 7.688ZM12.3432 7.688C12.3432 7.85375 12.5337 7.85825 12.5337 7.85825L12.3432 7.688Z" fill="white"/>
</svg>
